<svg width="55" height="454" viewBox="0 0 55 454" fill="none" xmlns="http://www.w3.org/2000/svg">
<path d="M53 434.22V423.42H9.656V404.124H1.592L1.592 453.516H9.656V434.22H53ZM36.44 360.324H35C23.84 360.324 13.4 366.804 13.4 383.724C13.4 397.26 21.536 406.692 34.28 406.692C44.432 406.692 54.44 400.284 54.44 383.076C54.44 368.532 46.016 363.348 41.768 361.188V371.988C44.936 373.932 47.24 376.812 47.24 383.364C47.24 393.228 40.688 396.108 36.44 396.324L36.44 360.324ZM30.104 396.324C22.328 394.668 20.168 388.188 20.168 383.58C20.168 378.684 22.472 371.916 30.104 370.692L30.104 396.324ZM41.048 355.451C52.712 355.091 54.44 342.203 54.44 334.067C54.44 322.259 51.128 312.971 41.408 312.971C32.552 312.971 31.328 321.179 29.528 333.707C28.16 343.283 27.656 344.219 24.56 344.219C22.544 344.219 20.168 341.195 20.168 335.579C20.168 332.195 20.816 325.571 26.504 324.779V314.411C14.264 314.987 13.4 329.171 13.4 335.075C13.4 341.483 14.84 354.155 25.712 354.155C34.424 354.155 35.792 347.963 37.376 336.155C38.816 325.427 39.824 323.771 42.776 323.771C46.376 323.771 47.672 329.171 47.672 334.139C47.672 337.739 46.808 344.363 41.048 344.651V355.451ZM42.344 303.724C49.544 303.724 53.864 302.788 53.864 290.692C53.864 287.668 53.648 285.724 53.288 283.06H46.088C46.16 285.436 46.232 287.74 46.232 290.188C46.232 293.572 43.856 293.788 39.464 293.788H22.04V283.42H14.84V293.788H3.032V303.724H14.84L14.84 311.644H22.04V303.724H42.344ZM53 277.211V267.275H14.84V277.211H53ZM8.792 277.211V267.275H0.727999V277.211H8.792ZM53 229.273V219.337H31.76C23.408 219.337 21.464 212.425 21.464 208.969C21.464 200.113 26.288 199.609 30.248 199.609H53V189.673H27.656C15.992 189.673 13.832 198.745 13.832 204.865C13.832 212.857 17.36 217.897 20.888 220.345C14.624 223.009 13.832 229.345 13.832 233.809C13.832 240.577 16.496 245.617 20.6 248.857V249.001H14.84L14.84 258.937H53V249.001H31.76C23.408 249.001 21.464 242.089 21.464 238.633C21.464 229.777 26.288 229.273 30.248 229.273H53ZM33.92 172.881C27.296 172.881 21.032 169.281 21.032 159.633C21.032 149.985 27.296 146.385 33.92 146.385C40.544 146.385 46.808 149.985 46.808 159.633C46.808 169.281 40.544 172.881 33.92 172.881ZM33.92 183.249C44.432 183.249 54.44 176.697 54.44 159.633C54.44 142.569 44.432 136.017 33.92 136.017C23.408 136.017 13.4 142.569 13.4 159.633C13.4 176.697 23.408 183.249 33.92 183.249ZM53 129.632V119.696H32.48C24.344 119.696 21.464 113 21.464 107.816C21.464 99.6081 26.144 98.2401 30.248 98.2401H53V88.3041H27.08C16.784 88.3041 13.832 96.2961 13.832 104.504C13.832 111.272 16.496 116.312 20.6 119.552V119.696H14.84V129.632H53ZM53 79.9847V70.0487H14.84L14.84 79.9847H53ZM8.792 79.9847L8.792 70.0487H0.727999L0.727999 79.9847H8.792ZM26.216 20.7422C21.248 20.7422 13.4 21.3182 13.4 41.2622C13.4 52.5662 16.496 59.9822 26.504 61.4222V51.7022C22.256 51.3422 20.168 47.8142 20.168 41.2622C20.168 35.5022 21.248 30.4622 25.64 30.4622C28.592 30.4622 29.096 31.9742 30.464 46.2302C31.04 52.5662 31.976 63.3662 42.488 63.3662C49.976 63.3662 54.44 57.7502 54.44 47.8142C54.44 36.6542 51.056 31.8302 49.184 29.8862C50.624 29.5982 54.08 28.8782 54.08 22.3982C54.08 19.0142 53.576 17.2862 53.216 15.3422H46.232C46.376 16.1342 46.448 17.6462 46.448 18.5822C46.448 19.2302 46.376 20.7422 44.288 20.7422H26.216ZM37.664 30.6782C46.088 30.6782 48.104 39.6782 48.104 45.0062C48.104 48.3902 47.168 52.9982 42.128 52.9982C38.888 52.9982 37.232 51.1982 36.368 43.7102C35.576 36.6542 35.216 33.5582 33.992 30.6782H37.664ZM53 10.7269V0.790874H0.727999V10.7269H53Z" fill="#F6FFFA"/>
</svg>
